<?xml version="1.0" encoding="UTF-8" standalone="no"?>
<!-- Created with Inkscape (http://www.inkscape.org/) -->

<svg
   xmlns:dc="http://purl.org/dc/elements/1.1/"
   xmlns:cc="http://creativecommons.org/ns#"
   xmlns:rdf="http://www.w3.org/1999/02/22-rdf-syntax-ns#"
   xmlns:svg="http://www.w3.org/2000/svg"
   xmlns="http://www.w3.org/2000/svg"
   xmlns:sodipodi="http://sodipodi.sourceforge.net/DTD/sodipodi-0.dtd"
   xmlns:inkscape="http://www.inkscape.org/namespaces/inkscape"
   id="svg3510"
   version="1.1"
   inkscape:version="0.91 r13725"
   width="48"
   height="48"
   viewBox="0 0 48 48"
   sodipodi:docname="nautilus-telegram-uploader.svg">
  <metadata
     id="metadata3516">
    <rdf:RDF>
      <cc:Work
         rdf:about="">
        <dc:format>image/svg+xml</dc:format>
        <dc:type
           rdf:resource="http://purl.org/dc/dcmitype/StillImage" />
        <dc:title />
      </cc:Work>
    </rdf:RDF>
  </metadata>
  <defs
     id="defs3514">
    <filter
       style="color-interpolation-filters:sRGB"
       inkscape:label="Drop Shadow"
       id="filter4120">
      <feFlood
         flood-opacity="0.498039"
         flood-color="rgb(0,0,0)"
         result="flood"
         id="feFlood4122" />
      <feComposite
         in="flood"
         in2="SourceGraphic"
         operator="in"
         result="composite1"
         id="feComposite4124" />
      <feGaussianBlur
         in="composite1"
         stdDeviation="3"
         result="blur"
         id="feGaussianBlur4126" />
      <feOffset
         dx="2"
         dy="2"
         result="offset"
         id="feOffset4128" />
      <feComposite
         in="SourceGraphic"
         in2="offset"
         operator="over"
         result="composite2"
         id="feComposite4130" />
    </filter>
    <filter
       style="color-interpolation-filters:sRGB"
       inkscape:label="Drop Shadow"
       id="filter5117">
      <feFlood
         flood-opacity="0.498039"
         flood-color="rgb(0,0,0)"
         result="flood"
         id="feFlood5119" />
      <feComposite
         in="flood"
         in2="SourceGraphic"
         operator="in"
         result="composite1"
         id="feComposite5121" />
      <feGaussianBlur
         in="composite1"
         stdDeviation="3"
         result="blur"
         id="feGaussianBlur5123" />
      <feOffset
         dx="-1.38778e-16"
         dy="-6.38378e-16"
         result="offset"
         id="feOffset5125" />
      <feComposite
         in="SourceGraphic"
         in2="offset"
         operator="over"
         result="composite2"
         id="feComposite5127" />
    </filter>
    <filter
       style="color-interpolation-filters:sRGB"
       inkscape:label="Drop Shadow"
       id="filter5302">
      <feFlood
         flood-opacity="0.498039"
         flood-color="rgb(0,0,0)"
         result="flood"
         id="feFlood5304" />
      <feComposite
         in="flood"
         in2="SourceGraphic"
         operator="in"
         result="composite1"
         id="feComposite5306" />
      <feGaussianBlur
         in="composite1"
         stdDeviation="3"
         result="blur"
         id="feGaussianBlur5308" />
      <feOffset
         dx="0"
         dy="-6.38378e-16"
         result="offset"
         id="feOffset5310" />
      <feComposite
         in="SourceGraphic"
         in2="offset"
         operator="over"
         result="composite2"
         id="feComposite5312" />
    </filter>
    <filter
       style="color-interpolation-filters:sRGB"
       inkscape:label="Drop Shadow"
       id="filter5326">
      <feFlood
         flood-opacity="0.498039"
         flood-color="rgb(0,0,0)"
         result="flood"
         id="feFlood5328" />
      <feComposite
         in="flood"
         in2="SourceGraphic"
         operator="in"
         result="composite1"
         id="feComposite5330" />
      <feGaussianBlur
         in="composite1"
         stdDeviation="3"
         result="blur"
         id="feGaussianBlur5332" />
      <feOffset
         dx="0"
         dy="-6.38378e-16"
         result="offset"
         id="feOffset5334" />
      <feComposite
         in="SourceGraphic"
         in2="offset"
         operator="over"
         result="composite2"
         id="feComposite5336" />
    </filter>
  </defs>
  <sodipodi:namedview
     pagecolor="#ffffff"
     bordercolor="#666666"
     borderopacity="1"
     objecttolerance="10"
     gridtolerance="10"
     guidetolerance="10"
     inkscape:pageopacity="0"
     inkscape:pageshadow="2"
     inkscape:window-width="1920"
     inkscape:window-height="1023"
     id="namedview3512"
     showgrid="false"
     inkscape:zoom="8"
     inkscape:cx="-12.451337"
     inkscape:cy="27.874435"
     inkscape:window-x="0"
     inkscape:window-y="27"
     inkscape:window-maximized="1"
     inkscape:current-layer="g5338" />
  <g
     id="g5338"
     transform="matrix(0.0811635,0,0,0.0811635,51.189686,-26.698223)">
    <g
       id="g5344"
       transform="matrix(1.1818182,0,0,1.1818182,60.90891,-113.57151)">
      <path
         sodipodi:nodetypes="csscscccccccc"
         style="fill:#526c78;fill-opacity:1;filter:url(#filter5326)"
         d="m -552.11434,500.0681 c 0,0 0.62925,-78.63671 2.59184,-82.88351 3.09418,-6.69542 6.82998,-10.57482 13.19183,-13.69891 l 5.7041,-2.80109 75,-0.32788 c 41.25,-0.18034 78.825,-0.0217 83.5,0.35242 l 8.50031,0.68031 23.79555,23.64757 23.79571,23.64799 24.25,20 24.25,0 0,31.3831 z"
         id="path4156"
         inkscape:connector-curvature="0" />
      <path
         style="fill:#778f9a;fill-opacity:1;filter:url(#filter5302)"
         d="m -316.03492,448.68528 -47.5918,51.38282 22,0 210.47852,0 c 0,0 2.94105,-37.31091 -3.54492,-43.79688 -7.03459,-7.03465 -2.33966,-7.5864 -72.23688,-7.58622 z"
         id="path5129"
         inkscape:connector-curvature="0"
         sodipodi:nodetypes="ccccssc" />
      <path
         style="fill:#cdd6da;fill-opacity:1;stroke:none;filter:url(#filter5117)"
         d="m -537.04128,490.1493 404.08469,0 c 13.2069,0 23.83916,16.81814 23.83916,37.70884 l 0,259.88533 c 0,20.89069 -10.63226,37.70884 -23.83916,37.70884 l -404.08469,0 c -13.20689,0 -23.83915,-16.81815 -23.83915,-37.70884 l 0,-259.88533 c 0,-20.8907 10.63226,-37.70884 23.83915,-37.70884 z"
         id="rect5006"
         inkscape:connector-curvature="0"
         sodipodi:nodetypes="sssssssss" />
      <path
         style="fill:#ffffff;fill-opacity:1;stroke:none;filter:url(#filter4120)"
         d="m -341.12657,567.4144 c -51.30141,0 -73.62711,0.32812 -75.3418,1.10937 -3.47083,1.58143 -4.65873,4.94789 -4.65235,13.1875 0.007,8.48463 1.40199,14.25636 3.78321,15.64454 2.36609,1.37937 149.65785,1.42471 152.23242,0.0469 2.54321,-1.36108 3.96592,-6.98012 3.97266,-15.69141 0.006,-8.23962 -1.17956,-11.60607 -4.6504,-13.1875 -1.71468,-0.78126 -24.04233,-1.10937 -75.34374,-1.10937 z"
         id="rect3968"
         inkscape:connector-curvature="0" />
    </g>
    <path
       style="fill:#d28c5e"
       d="m -188.7337,896.27214 c -0.73181,-0.36786 -3.02346,-2.19072 -5.09259,-4.05084 -5.8451,-5.25468 -7.36323,-6.08717 -13.22844,-7.25422 -1.88954,-0.37598 -3.72321,-0.87209 -4.07484,-1.10249 -0.8812,-0.57737 -1.5001,-2.12414 -2.30212,-5.75348 -2.36847,-10.71792 -2.35811,-15.53492 0.0358,-16.67719 1.15032,-0.54886 12.02524,-0.74501 51.97985,-0.93767 37.78923,-0.18219 45.50865,-0.35265 47.15663,-1.04124 1.60657,-0.67125 1.71946,-1.70267 2.05051,-18.73458 0.12978,-6.67634 0.3173,-10.89511 0.50449,-11.35109 0.16386,-0.39911 0.58253,-0.91214 0.93032,-1.14004 1.03549,-0.67846 5.18798,-0.94915 14.63597,-0.95408 l 8.92291,-0.005 6.69033,6.65769 c 9.01255,8.9686 14.04683,14.99837 16.33877,19.56959 1.13504,2.26377 1.79328,5.38035 2.55568,12.10029 1.13954,10.04419 1.03265,14.16405 -0.44991,17.3404 -0.85665,1.83532 -6.43502,7.52015 -9.49048,9.67162 -6.49265,4.57171 -12.01812,5.47269 -17.05305,2.78074 -1.85083,-0.98956 -6.66607,-5.77968 -7.31045,-7.27227 -0.55418,-1.28374 -2.16328,-2.52452 -3.99983,-3.08427 -1.41053,-0.42989 -28.49753,-0.4053 -50.71685,0.0461 l -15.73122,0.31957 -3.90561,3.83144 c -2.14808,2.10733 -4.59243,4.28072 -5.43184,4.82977 -3.01883,1.97461 -5.97971,2.8693 -9.51711,2.87578 -1.77671,0.003 -2.40579,-0.11634 -3.49697,-0.66483 z m 7.27738,-8.439 c 1.91107,-0.90988 4.04597,-3.05952 5.13586,-5.17129 1.49892,-2.90432 0.83013,-6.02154 -1.95703,-9.12153 -1.70182,-1.89282 -3.01216,-2.53527 -5.19631,-2.5477 -2.35675,-0.0135 -4.3399,0.96812 -6.72102,3.3264 -2.84398,2.81673 -3.60034,5.18724 -2.45778,7.70261 0.6718,1.47893 3.22658,4.18139 5.19639,5.49678 2.07925,1.38846 3.57945,1.46715 5.99989,0.31473 z m 103.75552,-0.23596 c 2.77687,-1.56057 4.78505,-4.96339 4.78505,-8.10821 0,-2.13133 -1.13968,-4.38736 -3.13982,-6.21536 -2.05388,-1.87714 -2.87704,-2.2674 -4.79562,-2.27362 -2.16186,-0.007 -3.94711,0.96651 -6.61761,3.60869 -1.7764,1.75757 -2.08979,2.21275 -2.38881,3.46964 -0.45713,1.92148 -0.0422,3.77955 1.31178,5.87445 2.77368,4.29145 7.1042,5.74668 10.84503,3.64441 z m -8.70439,-35.31243 c 4.16266,-0.28423 5.04322,-0.54244 5.67142,-1.66314 0.9575,-1.70816 -1.03383,-5.2812 -5.16586,-9.26923 -1.36592,-1.3183 -2.93376,-2.60898 -3.48408,-2.86818 -2.31032,-1.0881 -10.13882,-1.32909 -11.62127,-0.35777 -1.41801,0.92912 -1.75708,2.25565 -1.76319,6.89796 -0.009,6.9233 0.58896,7.4365 8.73611,7.49632 2.07128,0.0153 5.50339,-0.091 7.62687,-0.23596 z m -240.52533,36.61303 c -1.3368,-0.2818 -1.57257,-0.55271 -1.82607,-2.09834 -0.38525,-2.34892 -0.78423,-29.50768 -1.06026,-72.17179 -0.27754,-42.89789 -0.4787,-51.79159 -1.19622,-52.88665 -0.53358,-0.81435 -2.28374,-1.14828 -7.66854,-1.46313 -15.894,-0.92936 -16.56275,-0.99825 -17.13385,-1.76511 -0.56041,-0.75249 -0.75871,-3.82711 -0.74418,-11.53802 0.0146,-7.74013 0.59779,-14.68115 1.29144,-15.37016 0.28989,-0.28795 6.57062,-2.77846 12.27875,-4.86891 1.40551,-0.51473 7.34475,-2.54794 13.1983,-4.51823 5.89851,-1.98543 14.41231,-5.1027 19.09884,-6.99292 10.3539,-4.17605 12.88238,-5.12186 22.42923,-8.38995 7.73276,-2.64709 10.06462,-3.53065 22.74497,-8.61828 15.52046,-6.22714 32.35372,-12.53625 34.65674,-12.98934 2.27481,-0.44754 5.71172,-0.18924 9.05538,0.68055 6.87866,1.78936 29.51918,9.90946 56.48953,20.26015 5.77,2.21442 14.54605,5.50755 19.50233,7.31807 4.95629,1.81051 13.85339,5.10615 19.77134,7.32363 20.10668,7.53405 22.183,8.28674 25.46414,9.23116 3.6287,1.04445 4.81837,1.64854 5.29149,2.68686 0.91669,2.01194 1.13631,22.40518 0.2707,25.13837 -0.77976,2.46207 -2.3763,2.82119 -10.76258,2.42087 -2.85993,-0.13652 -7.19718,-0.32489 -9.63835,-0.41862 l -4.43846,-0.1704 -0.99832,1.57943 c -1.46669,2.3204 -1.67818,3.69087 -1.3175,8.53712 0.41279,5.54681 0.38508,7.81979 -0.10696,8.77129 -0.7254,1.40277 -1.4964,1.48196 -13.82645,1.42047 -6.12605,-0.0306 -11.22842,-0.15161 -11.33863,-0.269 -0.11021,-0.11739 -0.33926,-1.72656 -0.509,-3.57592 -0.4208,-4.5845 -0.79403,-6.63278 -1.32909,-7.29352 -0.90192,-1.11383 -4.76562,-1.17333 -74.40717,-1.14591 -65.94159,0.026 -76.97229,0.15868 -77.74898,0.93536 -0.24363,0.24363 -0.5113,1.31686 -0.66781,2.67761 -0.44262,3.8483 -0.76876,25.37328 -1.0941,72.21038 -0.17162,24.70744 -0.41613,45.0353 -0.54334,45.17303 -0.28874,0.31258 -21.76733,0.47919 -23.18732,0.17985 z m 52.76177,-2.37866 c -1.67625,-0.0643 -2.42476,-0.20447 -2.67014,-0.50013 -0.55953,-0.67418 -0.83201,-8.792 -0.64918,-19.34028 0.0923,-5.32616 0.28056,-11.19354 0.41832,-13.03865 0.22276,-2.9835 0.32064,-3.42488 0.88458,-3.98883 0.95768,-0.95768 3.03445,-1.11147 15.10552,-1.11865 11.02823,-0.006 19.14594,0.31712 20.04696,0.79932 0.76939,0.41179 1.04561,1.83478 1.3569,6.99039 0.38878,6.43884 0.22867,28.66429 -0.21363,29.657 l -0.32959,0.73974 -15.81028,-0.0553 c -8.69565,-0.0304 -16.8584,-0.0955 -18.13946,-0.14461 z m 73.47909,-33.16662 c -10.18049,-0.19445 -12.10839,-0.33441 -13.08964,-0.95028 -1.32261,-0.83013 -1.30555,-0.40181 -1.24681,-31.29285 0.0302,-15.89032 0.15126,-28.98359 0.269,-29.09617 0.35402,-0.33848 82.65966,-0.6054 87.96422,-0.28527 4.83308,0.29167 6.0677,0.60492 6.39028,1.62128 1.02728,3.23671 1.66519,53.5608 0.72459,57.163 -0.36166,1.38507 -1.07502,2.05358 -2.50261,2.34531 -3.27949,0.67021 -52.94408,0.98332 -78.50903,0.49498 z m -73.57088,-12.89246 c -1.9524,-0.25552 -2.45728,-0.44979 -2.69788,-1.03814 -0.65812,-1.60931 -0.78714,-31.38071 -0.14756,-34.04801 0.35181,-1.46717 1.08938,-2.09754 2.76494,-2.36312 0.78402,-0.12428 6.3885,-0.29956 12.4544,-0.38951 11.1819,-0.16586 19.60821,0.13159 20.94184,0.73923 1.01851,0.46405 1.29724,1.43126 1.58032,5.48371 0.30239,4.32893 0.0601,26.33122 -0.31667,28.75537 -0.28388,1.82649 -0.61007,2.24406 -2.06006,2.63725 -1.25931,0.34147 -30.10302,0.53948 -32.51933,0.22322 z"
       id="path4883"
       inkscape:connector-curvature="0" />
  </g>
</svg>
